<mxfile host="app.diagrams.net" modified="2023-08-14T06:43:55.740Z" agent="Mozilla/5.0 (Windows NT 10.0; Win64; x64) AppleWebKit/537.36 (KHTML, like Gecko) Chrome/115.0.0.0 Safari/537.36" etag="i8M5mWgxNzoA2n4wYaYH" version="21.6.2" type="github">
  <diagram name="第 1 页" id="64XDmGbhgn4v8U2-Gf78">
    <mxGraphModel dx="3088" dy="3096" grid="1" gridSize="10" guides="1" tooltips="1" connect="1" arrows="1" fold="1" page="1" pageScale="1" pageWidth="827" pageHeight="1169" math="0" shadow="0">
      <root>
        <mxCell id="0" />
        <mxCell id="1" parent="0" />
        <mxCell id="XFw0k5FgELGrsxw95LTb-1" value="&lt;span style=&quot;font-size: 18px;&quot;&gt;账号 / 短信 / 第三方授权登录&lt;/span&gt;" style="rounded=1;whiteSpace=wrap;html=1;" vertex="1" parent="1">
          <mxGeometry x="-1380" y="-2300" width="310" height="60" as="geometry" />
        </mxCell>
      </root>
    </mxGraphModel>
  </diagram>
</mxfile>
